<svg xmlns="http://www.w3.org/2000/svg" viewBox="0 0 900 560" role="img" aria-labelledby="title desc">
  <title id="title">YouTube clone interface preview</title>
  <desc id="desc">A video streaming dashboard with a large video player, red play icon, sidebar, and recommendation cards.</desc>
  <defs>
    <linearGradient id="bg" x1="0" y1="0" x2="1" y2="1">
      <stop offset="0" stop-color="#111827"/>
      <stop offset=".55" stop-color="#18181b"/>
      <stop offset="1" stop-color="#3f0f14"/>
    </linearGradient>
    <linearGradient id="screen" x1="0" y1="0" x2="1" y2="1">
      <stop offset="0" stop-color="#262626"/>
      <stop offset="1" stop-color="#0f172a"/>
    </linearGradient>
    <filter id="shadow" x="-20%" y="-20%" width="140%" height="140%">
      <feDropShadow dx="0" dy="18" stdDeviation="24" flood-color="#000000" flood-opacity=".35"/>
    </filter>
  </defs>
  <rect width="900" height="560" fill="url(#bg)"/>
  <path d="M0 92h900" stroke="#ffffff" stroke-opacity=".08"/>
  <circle cx="72" cy="46" r="16" fill="#ef4444"/>
  <rect x="108" y="34" width="122" height="24" rx="12" fill="#ffffff" fill-opacity=".9"/>
  <rect x="296" y="30" width="330" height="32" rx="16" fill="#ffffff" fill-opacity=".1"/>
  <rect x="710" y="34" width="54" height="24" rx="12" fill="#ef4444"/>
  <rect x="790" y="30" width="36" height="32" rx="16" fill="#ffffff" fill-opacity=".14"/>
  <rect x="40" y="124" width="96" height="374" rx="20" fill="#ffffff" fill-opacity=".08"/>
  <rect x="64" y="158" width="48" height="10" rx="5" fill="#ffffff" fill-opacity=".42"/>
  <rect x="64" y="214" width="48" height="10" rx="5" fill="#ffffff" fill-opacity=".24"/>
  <rect x="64" y="270" width="48" height="10" rx="5" fill="#ffffff" fill-opacity=".24"/>
  <rect x="64" y="326" width="48" height="10" rx="5" fill="#ffffff" fill-opacity=".24"/>
  <rect x="172" y="124" width="470" height="288" rx="24" fill="url(#screen)" filter="url(#shadow)"/>
  <rect x="196" y="148" width="422" height="240" rx="18" fill="#020617"/>
  <path d="M388 212c0-18 20-29 35-19l94 59c15 10 15 32 0 42l-94 59c-15 10-35-1-35-19V212Z" fill="#ef4444"/>
  <path d="M430 234v88l69-44-69-44Z" fill="#ffffff"/>
  <rect x="172" y="438" width="356" height="20" rx="10" fill="#ffffff" fill-opacity=".78"/>
  <rect x="172" y="472" width="244" height="12" rx="6" fill="#ffffff" fill-opacity=".26"/>
  <rect x="668" y="124" width="190" height="86" rx="18" fill="#ffffff" fill-opacity=".12"/>
  <rect x="684" y="140" width="96" height="54" rx="12" fill="#ef4444" fill-opacity=".8"/>
  <rect x="794" y="148" width="46" height="10" rx="5" fill="#ffffff" fill-opacity=".65"/>
  <rect x="794" y="172" width="34" height="8" rx="4" fill="#ffffff" fill-opacity=".28"/>
  <rect x="668" y="236" width="190" height="86" rx="18" fill="#ffffff" fill-opacity=".12"/>
  <rect x="684" y="252" width="96" height="54" rx="12" fill="#6366f1" fill-opacity=".72"/>
  <rect x="794" y="260" width="46" height="10" rx="5" fill="#ffffff" fill-opacity=".65"/>
  <rect x="794" y="284" width="34" height="8" rx="4" fill="#ffffff" fill-opacity=".28"/>
  <rect x="668" y="348" width="190" height="86" rx="18" fill="#ffffff" fill-opacity=".12"/>
  <rect x="684" y="364" width="96" height="54" rx="12" fill="#22c55e" fill-opacity=".65"/>
  <rect x="794" y="372" width="46" height="10" rx="5" fill="#ffffff" fill-opacity=".65"/>
  <rect x="794" y="396" width="34" height="8" rx="4" fill="#ffffff" fill-opacity=".28"/>
</svg>
